<svg class="absolute-right top-48 w-[520px]" xmlns="http://www.w3.org/2000/svg" fill="none" viewBox="0 0 275 276" preserveAspectRatio="xMidYMid meet"><path fill="#141414" d="M199.765.5h57.585c9.441 0 17.15 7.632 17.15 17.174v57.842c0 9.456-7.623 17.174-17.15 17.174h-55.624c-9.991 0-18.15 8.078-18.15 18.174v56.057c0 9.456-7.623 17.174-17.15 17.174h-55.624c-9.991 0-18.15 8.078-18.15 18.174v56.057c0 9.456-7.623 17.174-17.15 17.174H17.65C8.209 275.5.5 267.868.5 258.326v-57.931c0-9.456 7.623-17.174 17.15-17.174h55.624c9.991 0 18.15-8.078 18.15-18.174v-54.094c0-10.003-8.066-18.174-18.15-18.174H17.65C8.209 92.78.5 85.147.5 75.605V17.674C.5 8.22 8.21.5 17.65.5h58.12c9.441 0 17.15 7.632 17.15 17.174v56.057c0 10.003 8.066 18.174 18.15 18.174h53.395c9.992 0 18.15-8.078 18.15-18.174V17.674c0-9.456 7.623-17.174 17.15-17.174Z"></path></svg>
