<svg class="absolute-left top-48 w-[320px]" xmlns="http://www.w3.org/2000/svg" fill="none" viewBox="0 0 186 186" preserveAspectRatio="xMidYMid meet"><path fill="#141414" d="M93.183 17.982v56.263h-.09v.5c0 10.176 8.243 18.483 18.543 18.483h56.32c9.66 0 17.544 7.771 17.544 17.482v57.308c0 9.623-7.796 17.482-17.544 17.482h-57.504c-9.661 0-17.544-7.772-17.544-17.482v-56.763c0-10.176-8.244-18.483-18.544-18.483h-56.32C8.384 92.772.5 85.001.5 75.29V17.982C.5 8.361 8.385.5 18.044.5H75.64c9.66 0 17.544 7.772 17.544 17.482Z"></path></svg>
