<svg viewBox="0 0 100 100" xmlns="http://www.w3.org/2000/svg">
<path d="m94.902 52.398c-0.64062 1.5469-1.8477 2.7539-3.3945 3.3945-0.78125 0.32422-1.5938 0.47656-2.3906 0.47656-2.4609 0-4.8008-1.4609-5.8008-3.8711-0.12891-0.30469-0.22656-0.61719-0.30469-0.93359l-19.727 0.003906c0.19922-0.96484 0.19922-1.9648 0-2.9297h19.727c0.078125-0.31641 0.17969-0.62891 0.30469-0.9375 0.64062-1.5469 1.8477-2.7539 3.3945-3.3945 3.1953-1.3242 6.8711 0.19922 8.1914 3.3945 0.64062 1.5469 0.64062 3.25 0 4.7969zm-11.594 19.719c-0.30859-0.12891-0.62109-0.22656-0.93359-0.30469v-2.5898c0-2.6992-2.1953-4.8984-4.8945-4.8984l-26.195 0.003906v2.9297h26.188c1.0859 0 1.9688 0.88672 1.9688 1.9727v2.5938c-1.8828 0.45312-3.5312 1.7695-4.3281 3.6953-1.3242 3.1953 0.19922 6.8711 3.3945 8.1914 0.77344 0.32031 1.5859 0.48047 2.3984 0.48047s1.625-0.16016 2.3984-0.48047c1.5469-0.64063 2.7539-1.8477 3.3945-3.3945 1.3242-3.1992-0.19531-6.875-3.3906-8.1992zm-17.629 2.625c-1.5469-0.64063-3.2539-0.64063-4.8008 0-1.5469 0.64062-2.7539 1.8477-3.3945 3.3945-0.12891 0.30859-0.22656 0.62109-0.30469 0.9375h-5.8945v2.9297h5.8945c0.078124 0.31641 0.17578 0.625 0.30469 0.93359 1 2.4102 3.3398 3.8711 5.8008 3.8711 0.79688 0 1.6094-0.15234 2.3906-0.47656 3.1953-1.3242 4.7188-4.9961 3.3945-8.1914-0.64062-1.5508-1.8438-2.7539-3.3906-3.3984zm-8.1992-52.879c0.64062 1.5469 1.8477 2.7539 3.3945 3.3945 0.78125 0.32422 1.5938 0.47656 2.3906 0.47656 2.4609 0 4.8008-1.4609 5.8008-3.8711 1.3242-3.1953-0.19922-6.8711-3.3945-8.1914-1.5469-0.64062-3.2539-0.64062-4.8008 0s-2.7539 1.8477-3.3945 3.3945c-0.12891 0.30859-0.22656 0.62109-0.30469 0.9375h-5.8906v2.9297h5.8906c0.082031 0.3125 0.18359 0.625 0.30859 0.92969zm24.891 8.9141v-2.5938c0.31641-0.078125 0.62891-0.17578 0.93359-0.30469 3.1953-1.3242 4.7188-5 3.3945-8.1914-0.64062-1.5469-1.8477-2.7539-3.3945-3.3945-1.5469-0.64062-3.2539-0.64062-4.8008 0-3.1953 1.3242-4.7188 4.9961-3.3945 8.1914 0.64062 1.5469 1.8477 2.7539 3.3945 3.3945 0.30859 0.12891 0.61719 0.22656 0.9375 0.30469v2.5938c0 1.0859-0.88281 1.9727-1.9688 1.9727h-26.188v2.9297h26.188c2.7031 0 4.8984-2.1992 4.8984-4.9023zm-29.137 9.7891h-1.9492v18.871h1.9492c1.5391 0 2.9727-0.82812 3.7383-2.1602l2.9531-5.1172c0.76953-1.332 0.76953-2.9844 0-4.3164l-2.9531-5.1211c-0.76562-1.332-2.1992-2.1562-3.7383-2.1562zm-4.875-32.477v41.723c-0.41406 0.52734-0.93359 0.97656-1.5195 1.3047-2.4727 1.3984-5.6172 0.52344-7.0156-1.9453-0.42578-0.75-1.375-1.0117-2.125-0.58984-0.75 0.42578-1.0117 1.375-0.58984 2.125 1.0859 1.9219 2.8555 3.3047 4.9844 3.8945 0.73438 0.20313 1.4805 0.30469 2.2227 0.30469 1.4023 0 2.7891-0.35938 4.0391-1.0664v33.965c-0.65625 5.5508-5.3281 9.6953-10.926 9.6953h-0.10938c-5.707-0.054688-10.484-4.625-10.875-10.402-0.007812-0.085937-0.011718-0.16797-0.011718-0.25 1.2852-0.63281 2.3984-1.5938 3.2031-2.7852 0.48047-0.71484 0.29297-1.6836-0.42188-2.1641-0.71484-0.48047-1.6836-0.29297-2.1641 0.42187-0.63281 0.93359-1.5664 1.6445-2.6367 1.9961-0.003906 0-0.007812 0.003906-0.011718 0.003906-0.51172 0.16797-1.0469 0.25391-1.5859 0.25391-2.3789 0-4.4766-1.6836-4.9883-3.9961-0.066406-0.32812-0.10156-0.66797-0.10156-1.0117-0.003906-1.2266 0.44141-2.4141 1.2461-3.3438 0.56641-0.64844 0.49609-1.6328-0.15234-2.1992-0.64844-0.56641-1.6328-0.49609-2.1992 0.15234-1.1445 1.3164-1.8359 2.9648-1.9805 4.6914-3.4414-1.3281-5.8555-4.6992-5.8555-8.5078 0-1.3242 0.28516-2.6211 0.83594-3.8125 1.4648 0.69922 3.0469 1.1641 4.6523 1.3633 0.066406 0.007813 0.12891 0.011719 0.19141 0.011719 0.77734 0 1.4453-0.57812 1.5469-1.3672 0.10547-0.85547-0.50391-1.6328-1.3555-1.7383-1.6836-0.20703-3.3359-0.78906-4.7812-1.6758-0.003906-0.003906-0.007812-0.007813-0.011719-0.007813-3.2227-2.082-5.1875-5.9023-5.2461-10.219-0.058594-4.1328 1.6289-7.7773 4.5078-9.7578 0.015625-0.011719 0.03125-0.023438 0.046875-0.035156 1.4375-1.0273 3.0977-1.7266 4.8359-2.0391 0.64453 1.8203 2.0664 3.3555 4.0195 4.0703 0.17578 0.066406 0.35547 0.09375 0.53516 0.09375 0.63672 0 1.2344-0.39062 1.4648-1.0234 0.29688-0.80859-0.12109-1.7031-0.92969-2-1.8594-0.67969-2.8164-2.7461-2.1367-4.6055 0.17969-0.49609 0.47656-0.95313 0.85156-1.3242 0.61328-0.60156 0.62109-1.5898 0.019531-2.2031-0.60156-0.61328-1.5898-0.62109-2.2031-0.019532-0.70703 0.69531-1.2578 1.5508-1.5977 2.4805-0.17188 0.46875-0.28516 0.94922-0.34766 1.4258-1.6133 0.26563-3.1797 0.79688-4.6211 1.5625-0.17969-0.71484-0.27344-1.4531-0.27344-2.2031 0-3.8242 2.418-7.2695 6.0117-8.5703 0.79688-0.28516 1.2148-1.1562 0.94922-1.957-0.17188-0.51953-0.26172-1.0586-0.26172-1.6055 0-2.8164 2.293-5.1094 5.1094-5.1094 0.34375 0 0.67969 0.03125 1.0039 0.097656 0.007813 0 0.011719 0.003906 0.019532 0.003906 1.668 0.33984 3.0508 1.4805 3.7031 3.0625 0.24609 0.60156 0.82812 0.96484 1.4414 0.96484 0.19922 0 0.39844-0.039062 0.59375-0.11719 0.79688-0.32812 1.1758-1.2383 0.84766-2.0352-0.875-2.1211-2.5781-3.7539-4.6797-4.5547 0.47266-4.2227 3.8398-7.582 8.0664-8.0391-0.066406 1.6484 0.28516 3.3086 1.0273 4.7852-1.0938 1.1328-1.7461 2.5977-1.8555 4.1875-0.058594 0.85938 0.58984 1.6016 1.4492 1.6602 0.035156 0.003906 0.070312 0.003906 0.10938 0.003906 0.8125 0 1.4961-0.62891 1.5547-1.4531 0.066406-0.95703 0.5-1.8281 1.2227-2.4609 0.72266-0.62891 1.6484-0.94141 2.6055-0.875 0.52734 0.035156 1.0508 0.19141 1.5117 0.44922 0.75 0.42187 1.6992 0.15625 2.1211-0.59375s0.15625-1.6992-0.59375-2.1211c-0.86328-0.48438-1.8398-0.77734-2.8281-0.84375-0.91406-0.0625-1.8125 0.058594-2.6523 0.35156-0.58594-1.3242-0.72656-2.8242-0.37891-4.2344l0.003906-0.007812c1.0898-3.4883 4.2656-5.8242 7.918-5.8242h0.070312c3.0195 0.023438 5.4805 2.5352 5.4805 5.5898zm-21.789 45.555 0.77734 0.54688c1.4844 1.0391 2.5039 2.5898 2.8672 4.3672 0.15234 0.73828 0.80078 1.2461 1.5273 1.2461 0.10156 0 0.20703-0.011719 0.3125-0.03125 0.84375-0.17188 1.3867-0.99609 1.2148-1.8398-0.52344-2.5625-1.9883-4.8008-4.1328-6.2969l-0.53516-0.37891c0.86719-1.3555 1.4609-2.9102 1.6914-4.6055 0.23047-1.6758 0.078125-3.4102-0.43359-5.0195-0.26172-0.82031-1.1367-1.2734-1.957-1.0117-0.82031 0.26172-1.2734 1.1367-1.0117 1.957 0.37109 1.1719 0.48047 2.4336 0.3125 3.6523-0.61719 4.5547-4.8281 7.7578-9.3828 7.1367-0.85547-0.11328-1.6367 0.48047-1.7539 1.3359-0.11719 0.85156 0.48047 1.6367 1.3359 1.7539 0.51953 0.070313 1.0391 0.10547 1.5508 0.10547 2.875 0 5.5664-1.0898 7.6172-2.918zm8.9688 16.613c-2.1992 0.80859-4.582 0.71094-6.7109-0.27734-1.1758-0.54297-2.2305-1.3516-3.0586-2.3477-0.55078-0.66016-1.5312-0.75391-2.1953-0.20312-0.66016 0.55078-0.75391 1.5312-0.20312 2.1953 1.1211 1.3516 2.5586 2.4492 4.1484 3.1836 1.5898 0.73438 3.2852 1.1055 4.9883 1.1055h0.054688l0.03125 0.73828c0.16406 3.9648 2.5078 7.4648 6.1055 9.1328 0.21094 0.097656 0.43359 0.14453 0.65234 0.14453 0.58984 0 1.1523-0.33594 1.4141-0.90234 0.36328-0.78125 0.023437-1.707-0.75781-2.0703-2.5352-1.1758-4.1875-3.6406-4.3047-6.4336l-0.042969-1.0391c0.32031-0.089844 0.63672-0.1875 0.94922-0.30469 2.9805-1.0938 5.3594-3.2852 6.6914-6.168 0.36328-0.78125 0.023438-1.707-0.76172-2.0703-0.78125-0.35938-1.707-0.019531-2.0703 0.76172-0.97266 2.1289-2.7266 3.7461-4.9297 4.5547zm5.1133-33.645c-0.50391-1.2109-1.2344-2.2578-2.1172-3.1211l0.14844-0.17578c2.0508-2.4336 2.5625-5.7656 1.3359-8.6992-0.33203-0.79297-1.2422-1.168-2.0391-0.83984-0.79297 0.33203-1.1719 1.2422-0.83984 2.0391 0.77344 1.8516 0.44922 3.957-0.84375 5.4883l-0.33203 0.39453c-2.3477-1.1133-5.1367-1.2656-7.7148-0.1875-0.79297 0.33203-1.1719 1.2422-0.83984 2.0391 0.33203 0.79688 1.2422 1.1719 2.0391 0.83984 1.5703-0.65234 3.2969-0.66016 4.8711-0.011719 1.5703 0.64453 2.7969 1.8672 3.4531 3.4375 0.36328 0.86328 0.53125 1.8164 0.48437 2.7539-0.042968 0.85938 0.62109 1.5898 1.4805 1.6328 0.027344 0 0.050781 0.003906 0.078125 0.003906 0.82422 0 1.5156-0.64844 1.5547-1.4844 0.070312-1.3984-0.17969-2.8203-0.71875-4.1094z"/>
</svg>