<svg viewBox="0 0 100 100" xmlns="http://www.w3.org/2000/svg">
<path d="m90.629 48.727v-17.969c8.1836-4.6875 4.8672-17.469-4.6914-17.48-3.9023 0-7.2539 2.3984-8.6641 5.8008l-7.293 0.97656c-4.8203-6.5938-15.555-3.9141-16.734 4.1758-6.1641-0.082031-11.973 3.1719-15.102 8.5859-2.9297 5.4414 4.9062 9.9492 8.1133 4.6836 5.4648-8.7734 18.398-1.3047 13.551 7.8047-2.1602 3.4883 1.3633 8.0352 5.2734 6.875 1.207-0.32422 2.2188-1.1016 2.8359-2.1836 3.0273-5.2578 3.0352-11.551 0.16406-16.805 1.3203-0.98438 2.3789-2.3008 3.0352-3.832l7.4062-0.98438c0.74609 0.96094 1.668 1.7734 2.7266 2.3867v17.961c-3.6914 1.7578-6.2539 5.5156-6.2539 9.8672v9.375h-18.789c0.99219-1.3086 1.6016-2.9219 1.6016-4.6875v-14.062c0-4.3086-3.5039-7.8125-7.8125-7.8125h-15.625c-4.3086 0-7.8125 3.5039-7.8125 7.8125v14.062c0 1.7656 0.60938 3.3789 1.6016 4.6875h-6.3281c0.99219-1.3086 1.6016-2.9219 1.6016-4.6875v-14.062c-0.050782-5.1289-4.4492-8.332-9.375-7.8125h-9.375c-0.86328 0-1.5625 0.69922-1.5625 1.5625v26.562c0 0.86328 0.69922 1.5625 1.5625 1.5625h0.84375c-5.4023 5.8008-1.0547 15.734 6.9688 15.625h64.062c0.26562-0.078125 0.50391-0.007813 0.78125 0h14.844c2.5859 0 4.6875-2.1016 4.6875-4.6875v-23.438c0-4.3516-2.5586-8.1055-6.2461-9.8672zm-47.074-12.785c-1.0234 1.7578-3.7031 0.19922-2.6953-1.5664 2.5703-4.4492 7.3516-7.0781 12.43-6.9883 0.21094 1.1523 0.63672 2.2266 1.2305 3.1875-4.2734-0.57422-8.6758 1.4141-10.965 5.3672zm21.656 12.5c-1.0195 1.7539-3.7383 0.20312-2.6953-1.5703 2.2031-3.832 1.8125-8.4609-0.60938-11.844 1.1523 0.097656 2.3438-0.070313 3.4062-0.40234 2.3789 4.3125 2.3867 9.4922-0.10156 13.816zm-2.7109-16.508c-8.2617-0.26172-8.2578-12.238 0-12.5 8.2578 0.26172 8.2578 12.238 0 12.5zm9.3516-5.8203c0.078126-1.0547-0.085937-2.1289-0.37109-3.1055l5.0977-0.68359c-0.066406 1.0586 0.10547 2.1328 0.40234 3.1055l-5.1289 0.67969zm-34.352 18.418h9.375v7.5469l-4.25-1.2383c-0.53906-0.32812-4.2891 1.0781-5.125 1.2383zm-7.8125 4.6875c0-2.5859 2.1016-4.6875 4.6875-4.6875v8.4648c0 0.80078 0.36719 1.5547 0.98438 2.0156 0.57812 0.43359 1.3047 0.56641 1.9883 0.37109 0.003906 0 4.8438-1.4141 4.8438-1.4141 0.37109 0.082031 5.2344 1.6094 5.4727 1.5039 1.2969 0.019532 2.3633-1.1758 2.3398-2.4766v-8.4648c2.5859 0 4.6875 2.1016 4.6875 4.6875v14.062c0 2.5859-2.1016 4.6875-4.6875 4.6875h-15.625c-2.5859 0-4.6875-2.1016-4.6875-4.6875v-14.062zm-23.438-4.6875h6.25v7.5469l-4.25-1.2383c-0.14453-0.042969-0.28906-0.0625-0.4375-0.0625-0.32031-0.023438-1.2461 0.31641-1.5625 0.39062zm0 9.8906 1.5625-0.45703c0.37109 0.082031 5.2344 1.6133 5.4727 1.5039 1.2969 0.019531 2.3633-1.1758 2.3398-2.4766v-8.4648c2.5859 0 4.6875 2.1016 4.6875 4.6875v14.062c0 2.5859-2.1016 4.6875-4.6875 4.6875h-9.375v-13.547zm68.75 29.172h-62.5c-8.25-0.25781-8.2656-12.238 0-12.5h62.5zm4.6875-60.938c0.26172-8.2617 12.238-8.2578 12.5 0-0.26172 8.2578-12.238 8.2578-12.5 0zm7.8164 9.2344v15.891c-1.0195-0.16406-2.1055-0.16406-3.125 0v-15.891c1.0117 0.18359 2.1133 0.18359 3.125 0zm6.2461 50.141c0 0.86328-0.69922 1.5625-1.5625 1.5625h-14.062c0.007812-6.1719-0.007812-18.898 0-25 0.36719-10.336 15.258-10.34 15.625 0v23.438z"/>
<path d="m46.875 72.656h-9.375c-6.1797 0.16016-6.1836 9.2148 0 9.375h9.375c2.5859 0 4.6875-2.1016 4.6875-4.6875s-2.1016-4.6875-4.6875-4.6875zm0 6.25h-9.375c-0.86328 0-1.5625-0.69922-1.5625-1.5625s0.69922-1.5625 1.5625-1.5625h9.375c0.86328 0 1.5625 0.69922 1.5625 1.5625s-0.69922 1.5625-1.5625 1.5625z"/>
<path d="m59.375 82.031h9.375c2.5859 0 4.6875-2.1016 4.6875-4.6875s-2.1016-4.6875-4.6875-4.6875h-9.375c-6.1797 0.16016-6.1836 9.2148 0 9.375zm9.375-3.125h-9.375c-2.0508-0.035156-2.0547-3.0898 0-3.125h9.375c2.0508 0.035156 2.0547 3.0898 0 3.125z"/>
<path d="m25 72.656h-9.375c-2.5859 0-4.6875 2.1016-4.6875 4.6875s2.1016 4.6875 4.6875 4.6875h9.375c6.1797-0.16016 6.1836-9.2148 0-9.375zm0 6.25h-9.375c-2.0508-0.035156-2.0547-3.0898 0-3.125h9.375c2.0508 0.035156 2.0547 3.0898 0 3.125z"/>
</svg>