<svg viewBox="0 0 64 64" xmlns="http://www.w3.org/2000/svg">
<path d="m22.245 54.029c-0.43 0-0.856-0.184-1.153-0.539-0.531-0.636-0.445-1.582 0.191-2.112l4.379-3.654c0.636-0.532 1.582-0.446 2.113 0.19s0.445 1.582-0.191 2.112l-4.379 3.654c-0.28 0.235-0.621 0.349-0.96 0.349z"/>
<path d="m26.622 57.679c-0.338 0-0.679-0.114-0.959-0.348l-4.379-3.649c-0.636-0.53-0.722-1.477-0.192-2.112 0.53-0.637 1.476-0.723 2.113-0.192l4.379 3.649c0.636 0.53 0.722 1.477 0.192 2.112-0.297 0.356-0.724 0.54-1.154 0.54z"/>
<path d="m37.382 57.679c-0.43 0-0.856-0.184-1.153-0.539-0.53-0.637-0.444-1.582 0.191-2.113l4.376-3.649c0.636-0.529 1.582-0.444 2.113 0.191 0.53 0.637 0.444 1.582-0.191 2.113l-4.376 3.649c-0.28 0.233-0.621 0.348-0.96 0.348z"/>
<path d="m41.756 54.029c-0.339 0-0.68-0.114-0.961-0.349l-4.376-3.654c-0.636-0.531-0.721-1.477-0.189-2.113 0.531-0.634 1.475-0.722 2.113-0.189l4.376 3.654c0.636 0.531 0.721 1.477 0.189 2.113-0.297 0.355-0.722 0.538-1.152 0.538z"/>
<path d="m31.396 57.679c-0.082 0-0.165-7e-3 -0.248-0.021-0.817-0.136-1.37-0.908-1.233-1.726l1.215-7.304c0.136-0.817 0.91-1.366 1.726-1.233 0.817 0.136 1.369 0.908 1.233 1.726l-1.215 7.304c-0.123 0.733-0.758 1.254-1.478 1.254z"/>
<path d="m38.672 62.143h-13.344c-5.302 0-9.616-4.313-9.616-9.615 0-5.303 4.314-9.616 9.616-9.616h13.344c5.303 0 9.616 4.313 9.616 9.616 0 5.301-4.313 9.615-9.616 9.615zm-13.344-16.232c-3.648 0-6.616 2.968-6.616 6.616 0 3.647 2.968 6.615 6.616 6.615h13.344c3.648 0 6.616-2.968 6.616-6.615 0-3.648-2.968-6.616-6.616-6.616h-13.344z"/>
<path d="m16.7 31.071h-15.2c-0.829 0-1.5-0.671-1.5-1.5v-26.214c0-0.829 0.671-1.5 1.5-1.5h15.2c0.829 0 1.5 0.671 1.5 1.5v26.214c0 0.829-0.671 1.5-1.5 1.5zm-13.7-3h12.2v-23.214h-12.2v23.214z"/>
<path d="m11.874 9.716h-5.546c-0.829 0-1.5-0.671-1.5-1.5s0.671-1.5 1.5-1.5h5.546c0.829 0 1.5 0.671 1.5 1.5s-0.672 1.5-1.5 1.5z"/>
<path d="m11.874 15.215h-5.546c-0.829 0-1.5-0.671-1.5-1.5s0.671-1.5 1.5-1.5h5.546c0.829 0 1.5 0.671 1.5 1.5s-0.672 1.5-1.5 1.5z"/>
<path d="m11.874 20.714h-5.546c-0.829 0-1.5-0.671-1.5-1.5s0.671-1.5 1.5-1.5h5.546c0.829 0 1.5 0.671 1.5 1.5s-0.672 1.5-1.5 1.5z"/>
<path d="m11.874 26.214h-5.546c-0.829 0-1.5-0.671-1.5-1.5s0.671-1.5 1.5-1.5h5.546c0.829 0 1.5 0.671 1.5 1.5s-0.672 1.5-1.5 1.5z"/>
<path d="m39.601 31.071h-15.202c-0.829 0-1.5-0.671-1.5-1.5v-26.214c0-0.829 0.671-1.5 1.5-1.5h15.202c0.828 0 1.5 0.671 1.5 1.5v26.214c0 0.829-0.672 1.5-1.5 1.5zm-13.702-3h12.202v-23.214h-12.202v23.214z"/>
<path d="m34.772 9.716h-5.546c-0.829 0-1.5-0.671-1.5-1.5s0.671-1.5 1.5-1.5h5.546c0.828 0 1.5 0.671 1.5 1.5s-0.671 1.5-1.5 1.5z"/>
<path d="m34.772 15.215h-5.546c-0.829 0-1.5-0.671-1.5-1.5s0.671-1.5 1.5-1.5h5.546c0.828 0 1.5 0.671 1.5 1.5s-0.671 1.5-1.5 1.5z"/>
<path d="m34.772 20.714h-5.546c-0.829 0-1.5-0.671-1.5-1.5s0.671-1.5 1.5-1.5h5.546c0.828 0 1.5 0.671 1.5 1.5s-0.671 1.5-1.5 1.5z"/>
<path d="m34.772 26.214h-5.546c-0.829 0-1.5-0.671-1.5-1.5s0.671-1.5 1.5-1.5h5.546c0.828 0 1.5 0.671 1.5 1.5s-0.671 1.5-1.5 1.5z"/>
<path d="m62.5 31.071h-15.2c-0.828 0-1.5-0.671-1.5-1.5v-26.214c0-0.829 0.672-1.5 1.5-1.5h15.2c0.828 0 1.5 0.671 1.5 1.5v26.214c0 0.829-0.672 1.5-1.5 1.5zm-13.7-3h12.2v-23.214h-12.2v23.214z"/>
<path d="m57.671 9.716h-5.545c-0.828 0-1.5-0.671-1.5-1.5s0.672-1.5 1.5-1.5h5.545c0.828 0 1.5 0.671 1.5 1.5s-0.672 1.5-1.5 1.5z"/>
<path d="m57.671 15.215h-5.545c-0.828 0-1.5-0.671-1.5-1.5s0.672-1.5 1.5-1.5h5.545c0.828 0 1.5 0.671 1.5 1.5s-0.672 1.5-1.5 1.5z"/>
<path d="m57.671 20.714h-5.545c-0.828 0-1.5-0.671-1.5-1.5s0.672-1.5 1.5-1.5h5.545c0.828 0 1.5 0.671 1.5 1.5s-0.672 1.5-1.5 1.5z"/>
<path d="m57.671 26.214h-5.545c-0.828 0-1.5-0.671-1.5-1.5s0.672-1.5 1.5-1.5h5.545c0.828 0 1.5 0.671 1.5 1.5s-0.672 1.5-1.5 1.5z"/>
<path d="m32 45.911c-0.829 0-1.5-0.672-1.5-1.5v-14.84c0-0.829 0.671-1.5 1.5-1.5s1.5 0.671 1.5 1.5v14.84c0 0.828-0.671 1.5-1.5 1.5z"/>
<path d="m54.899 54.027c-0.828 0-1.5-0.672-1.5-1.5v-22.956c0-0.829 0.672-1.5 1.5-1.5s1.5 0.671 1.5 1.5v22.956c0 0.828-0.671 1.5-1.5 1.5z"/>
<path d="m54.899 54.027h-8.111c-0.828 0-1.5-0.672-1.5-1.5s0.672-1.5 1.5-1.5h8.111c0.828 0 1.5 0.672 1.5 1.5s-0.671 1.5-1.5 1.5z"/>
<path d="m17.212 54.027h-8.112c-0.829 0-1.5-0.672-1.5-1.5s0.671-1.5 1.5-1.5h8.112c0.829 0 1.5 0.672 1.5 1.5s-0.671 1.5-1.5 1.5z"/>
<path d="m9.1 54.027c-0.829 0-1.5-0.672-1.5-1.5v-22.956c0-0.829 0.671-1.5 1.5-1.5s1.5 0.671 1.5 1.5v22.956c0 0.828-0.671 1.5-1.5 1.5z"/>
</svg>
