<?xml version="1.0" encoding="UTF-8"?>
<svg width="800px" height="800px" viewBox="0 0 32 32" xmlns="http://www.w3.org/2000/svg">
<circle cx="16" cy="16" r="14" fill="#1794D4"/>
<path d="m18 7h-2v2h2v-2z" fill="#fff"/>
<path d="m10 10h2v2h-2v-2z" fill="#fff"/>
<path d="m6.0016 16.941c0.17089 2.9013 1.8987 7.0586 7.9984 7.0586 6.8 0 9.8333-5 10.5-7.5 0.8333 0 2.7-0.5 3.5-2.5-0.5-0.5-2.5-0.5-3.5 0 0-0.8-0.5-2.5-1.5-3-0.6667 0.6667-1.7 2.4-0.5 4-0.5 1-1.8333 1-2.5 1h-13.057c-0.52948 0-0.97249 0.4128-0.94135 0.9414z" fill="#fff"/>
<path d="m9 13h-2v2h2v-2z" fill="#fff"/>
<path d="m10 13h2v2h-2v-2z" fill="#fff"/>
<path d="m15 13h-2v2h2v-2z" fill="#fff"/>
<path d="m16 13h2v2h-2v-2z" fill="#fff"/>
<path d="m21 13h-2v2h2v-2z" fill="#fff"/>
<path d="m15 10h-2v2h2v-2z" fill="#fff"/>
<path d="m16 10h2v2h-2v-2z" fill="#fff"/>
</svg>