<svg fill="#000000" xmlns="http://www.w3.org/2000/svg" viewBox="0 0 30 30">
<path d="m29 7h-9v-2c0-1.6543-1.3457-3-3-3h-12c-1.6543 0-3 1.3457-3 3v22c0 1.6543 1.3457 3 3 3h12c1.6543 0 3-1.3457 3-3v-2h9c0.55273 0 1-0.44727 1-1v-16c0-0.55273-0.44727-1-1-1zm-1 2v4h-18v-4h18zm-17-5c0 6.714e-4 -3.662e-4 0.0012817-3.662e-4 0.0019531v-0.0019531h3.662e-4zm6.9996 23c0 0.55176-0.44824 1-1 1h-12c-0.55176 0-1-0.44824-1-1v-22c0-0.55176 0.44824-1 1-1h4c0 1.1025 0.89746 2 2 2s2-0.89746 2-2h4c0.55176 0 1 0.44824 1 1v2h-9c-0.55273 0-1 0.44727-1 1v16c0 0.55273 0.44727 1 1 1h9v2zm10-4h-18v-8h18v8z"/>
<path d="m14.293 21.707c0.19531 0.19531 0.45117 0.29297 0.70703 0.29297s0.51172-0.097656 0.70703-0.29297c0.39062-0.39062 0.39062-1.0234 0-1.4141l-1.293-1.293 1.293-1.293c0.39062-0.39062 0.39062-1.0234 0-1.4141s-1.0234-0.39062-1.4141 0l-2 2c-0.39062 0.39062-0.39062 1.0234 0 1.4141l2 2z"/>
<path d="m22.293 21.707c0.19531 0.19531 0.45117 0.29297 0.70703 0.29297s0.51172-0.097656 0.70703-0.29297l2-2c0.39062-0.39062 0.39062-1.0234 0-1.4141l-2-2c-0.39062-0.39062-1.0234-0.39062-1.4141 0s-0.39062 1.0234 0 1.4141l1.293 1.293-1.293 1.293c-0.39062 0.39062-0.39062 1.0234 1e-7 1.4141z"/>
<path d="m17.553 21.895c0.14355 0.071289 0.2959 0.10547 0.44629 0.10547 0.36719 0 0.71973-0.20215 0.89551-0.55273l2-4c0.24707-0.49414 0.046875-1.0947-0.44727-1.3418-0.49414-0.24609-1.0938-0.046875-1.3418 0.44727l-2 4c-0.24707 0.49414-0.046875 1.0947 0.44727 1.3418z"/>
ircle cx="12" cy="="11" r="1"/>
ircle cx="15" cy="1111" r="1"/>
</svg>
