<?xml version="1.0" encoding="UTF-8"?>
<svg width="800px" height="800px" viewBox="0 0 32 32" xmlns="http://www.w3.org/2000/svg">
<path d="m16.05 8.4406c6.5881-5.1146 3.2069-8.4406 3.2069-8.4406 0.5032 5.2874-5.4436 6.5358-7.0377 10.169-1.0877 2.4793 0.7449 4.6501 3.8286 7.3862-0.2726-0.606-0.6931-1.1948-1.1187-1.7909-1.4519-2.0332-2.9643-4.1513 1.1209-7.3239z" fill="#E76F00"/>
<path d="m17.102 18.677s1.982-1.5991 0.4124-3.3762c-5.3208-6.0289 5.8194-8.765 5.8194-8.765-6.8016 3.2767-5.7862 5.2216-4.0766 7.5844 1.8304 2.5336-2.1552 4.5568-2.1552 4.5568z" fill="#E76F00"/>
<path d="m22.937 23.446c6.1053-3.1198 3.2825-6.1178 1.3122-5.7139-0.483 0.0988-0.6983 0.1845-0.6983 0.1845s0.1793-0.2762 0.5217-0.3958c3.8979-1.3475 6.8956 3.9745-1.2583 6.0824 0 1e-4 0.0945-0.083 0.1227-0.1572z" fill="#5382A1"/>
<path d="m10.233 19.497c-3.8199-0.5016 2.0945-1.883 2.0945-1.883s-2.2968-0.1523-5.1216 1.1904c-3.3402 1.5889 8.2622 2.3115 14.268 0.7582 0.6244-0.4193 1.4874-0.7827 1.4874-0.7827s-2.4577 0.4316-4.9053 0.6347c-2.9949 0.2467-6.2102 0.2948-7.8231 0.0824z" fill="#5382A1"/>
<path d="m11.686 22.476c-2.1302-0.2166-0.7354-1.2319-0.7354-1.2319-5.512 1.799 3.0668 3.8391 10.769 1.6243-0.8187-0.2838-1.3393-0.8029-1.3393-0.8029-3.7643 0.7128-5.9396 0.69-8.6942 0.4105z" fill="#5382A1"/>
<path d="m12.614 25.699c-2.1285-0.2406-0.885-0.9517-0.885-0.9517-5.0036 1.3748 3.0434 4.2151 9.4138 1.5303-1.0434-0.399-1.7905-0.8596-1.7905-0.8596-2.8417 0.5288-4.1597 0.5703-6.7383 0.281z" fill="#5382A1"/>
<path d="m25.939 27.339s0.9202 0.7456-1.0135 1.3224c-3.6771 1.0954-15.304 1.4262-18.534 0.0437-1.1611-0.4967 1.0163-1.186 1.7012-1.3307 0.71431-0.1523 1.1225-0.1239 1.1225-0.1239-1.2913-0.8945-8.3462 1.7564-3.5836 2.5156 12.988 2.0713 23.677-0.9328 20.308-2.4271z" fill="#5382A1"/>
<path d="m28 28.968c-0.2131 2.7268-9.2123 3.3004-15.073 2.9315-3.8231-0.2411-4.5893-0.8436-4.6005-0.8524 3.659 0.5932 9.828 0.7012 14.83-0.2245 4.4335-0.8209 4.8432-1.8546 4.8432-1.8546z" fill="#5382A1"/>
</svg>