<?xml version="1.0" encoding="UTF-8"?>
<svg width="800px" height="800px" fill="none" viewBox="0 0 32 32" xmlns="http://www.w3.org/2000/svg">
<path d="m13.016 2c-2.1971 0-3.9782 1.7245-3.9782 3.8518v2.6667h6.8852v0.74074h-9.9454c-2.1971 0-3.9781 1.7245-3.9781 3.8518v5.7778c0 2.1273 1.7811 3.8518 3.9781 3.8518h2.2951v-3.2592c0-2.1273 1.7811-3.8519 3.9782-3.8519h7.3442c1.8591 0 3.3661-1.4592 3.3661-3.2592v-6.5186c0-2.1273-1.781-3.8518-3.9781-3.8518h-5.9672zm-0.918 4.7407c0.7605 0 1.377-0.59696 1.377-1.3333 0-0.73638-0.6165-1.3333-1.377-1.3333-0.7606 0-1.3771 0.59696-1.3771 1.3333 0 0.73637 0.6165 1.3333 1.3771 1.3333z" clip-rule="evenodd" fill="url(#b)" fill-rule="evenodd"/>
<path d="m18.983 30c2.1971 0 3.9782-1.7245 3.9782-3.8518v-2.6667h-6.8853v-0.7407h9.9454c2.1971 0 3.9781-1.7246 3.9781-3.8519v-5.7778c0-2.1273-1.781-3.8518-3.9781-3.8518h-2.2951v3.2592c0 2.1274-1.7811 3.8519-3.9781 3.8519h-7.3443c-1.8591 0-3.3661 1.4592-3.3661 3.2592v6.5186c0 2.1273 1.7811 3.8518 3.9781 3.8518h5.9672zm0.9181-4.7407c-0.7606 0-1.3771 0.5969-1.3771 1.3333s0.6165 1.3333 1.3771 1.3333c0.7605 0 1.377-0.5969 1.377-1.3333s-0.6165-1.3333-1.377-1.3333z" clip-rule="evenodd" fill="url(#a)" fill-rule="evenodd"/>
<defs>
<linearGradient id="b" x1="12.481" x2="12.481" y1="2" y2="22.741" gradientUnits="userSpaceOnUse">
<stop stop-color="#327EBD" offset="0"/>
<stop stop-color="#1565A7" offset="1"/>
</linearGradient>
<linearGradient id="a" x1="19.519" x2="19.519" y1="9.2593" y2="30" gradientUnits="userSpaceOnUse">
<stop stop-color="#FFDA4B" offset="0"/>
<stop stop-color="#F9C600" offset="1"/>
</linearGradient>
</defs>
</svg>