<?xml version="1.0" encoding="UTF-8"?>
<svg width="800px" height="800px" preserveAspectRatio="xMidYMid" version="1.1" viewBox="0 -18 256 256" xmlns="http://www.w3.org/2000/svg">
<path d="m245.97 168.94c-13.661 7.1212-84.434 36.22-99.501 44.074-15.066 7.8562-23.437 7.7802-35.339 2.0901-11.902-5.6902-87.217-36.112-100.78-42.596-6.7812-3.2411-10.346-5.9762-10.346-8.5603v-25.876s98.049-21.346 113.88-27.024c15.828-5.6792 21.321-5.8842 34.791-0.95003 13.471 4.9352 94.017 19.468 107.33 24.344 0 0-0.006001 23.111-0.006001 25.51 0.002001 2.5581-3.0701 5.3642-10.024 8.9883" fill="#912626"></path>
<path d="m245.96 143.22c-13.661 7.118-84.431 36.218-99.498 44.072-15.066 7.857-23.436 7.78-35.338 2.09-11.903-5.686-87.214-36.113-100.78-42.594-13.566-6.485-13.851-10.948-0.524-16.166 13.326-5.22 88.224-34.605 104.05-40.284 15.828-5.677 21.319-5.884 34.789-0.948 13.471 4.934 83.819 32.935 97.131 37.81 13.315 4.881 13.826 8.899 0.165 16.02" fill="#C6302B"></path>
<path d="m245.97 127.07c-13.661 7.1212-84.434 36.22-99.501 44.077-15.066 7.8532-23.437 7.7772-35.339 2.0871-11.903-5.6872-87.217-36.112-100.78-42.596-6.7812-3.2411-10.346-5.9732-10.346-8.5573v-25.879s98.049-21.345 113.88-27.024c15.828-5.6782 21.321-5.8842 34.791-0.95003 13.471 4.9352 94.017 19.465 107.33 24.342 0 0-0.006001 23.111-0.006001 25.513 0.002001 2.5571-3.0701 5.3632-10.024 8.9873" fill="#912626"></path>
<path d="m245.96 101.35c-13.661 7.12-84.431 36.218-99.498 44.075-15.066 7.854-23.436 7.777-35.338 2.087-11.903-5.686-87.214-36.112-100.78-42.594-13.566-6.483-13.851-10.947-0.524-16.167 13.326-5.217 88.224-34.604 104.05-40.282 15.828-5.678 21.319-5.884 34.789-0.949 13.471 4.934 83.819 32.933 97.131 37.81 13.315 4.879 13.826 8.899 0.165 16.019v0.001001" fill="#C6302B"></path>
<path d="m245.97 83.653c-13.661 7.1212-84.434 36.221-99.501 44.078-15.066 7.8542-23.437 7.7772-35.339 2.0871-11.903-5.6872-87.217-36.113-100.78-42.595-6.7812-3.2421-10.346-5.9752-10.346-8.5573v-25.88s98.049-21.344 113.88-27.022c15.828-5.6792 21.321-5.8842 34.791-0.95003 13.471 4.9352 94.017 19.465 107.33 24.342 0 0-0.006001 23.111-0.006001 25.512 0.002001 2.5551-3.0701 5.3612-10.024 8.9853" fill="#912626"></path>
<path d="m245.96 57.929c-13.661 7.12-84.431 36.22-99.498 44.075-15.066 7.854-23.436 7.777-35.338 2.089-11.902-5.688-87.214-36.112-100.78-42.595-13.566-6.483-13.851-10.948-0.524-16.167 13.326-5.218 88.224-34.602 104.05-40.282 15.828-5.679 21.319-5.883 34.789-0.948 13.471 4.935 83.819 32.934 97.131 37.811 13.315 4.876 13.826 8.897 0.165 16.017" fill="#C6302B"></path>
<path d="m159.28 32.757-22.009 2.2851-4.9275 11.855-7.9588-13.23-25.414-2.2842 18.964-6.8386-5.6896-10.498 17.754 6.9438 16.738-5.4802-4.5237 10.855 17.067 6.3911" fill="#fff"></path>
<path d="m131.03 90.275-41.077-17.037 58.861-9.0344-17.784 26.071" fill="#fff"></path>
<path d="m74.082 39.347c17.375 0 31.46 5.4603 31.46 12.195 0 6.7354-14.085 12.195-31.46 12.195-17.374 0-31.46-5.4593-31.46-12.195 0-6.7344 14.086-12.195 31.46-12.195" fill="#fff"></path>
<path d="m185.29 35.998 34.836 13.766-34.806 13.753-0.029767-27.519" fill="#621B1C"></path>
<path d="m146.75 51.243 38.54-15.245 0.029767 27.519-3.7785 1.4784-34.791-13.753" fill="#9A2928"></path>
</svg>