<svg viewBox="0 0 64 64" xmlns="http://www.w3.org/2000/svg">
<path d="m41.3 16.3-10.4 10.4c-10.1 1.1-18.5 11.6-18.9 12.1-0.3 0.4-0.3 1 0.1 1.3l11.8 11.8c0.2 0.2 0.5 0.3 0.7 0.3s0.5-0.1 0.6-0.2c0.4-0.3 9.2-7.7 12-18.9l10.4-10.4c1.8-1.8 1.8-4.6 0-6.4s-4.6-1.7-6.3 0zm-16.7 33.5-10.5-10.5c2-2.3 9-9.7 16.9-10.7l4.2 4.2c-2.3 8.7-8.5 15.1-10.6 17zm21.7-28.5-9.9 9.9-3.6-3.6 9.9-9.9c0.9-0.9 2.6-0.9 3.6 0 0.5 0.5 0.7 1.1 0.7 1.8s-0.3 1.3-0.7 1.8z"/>
<ellipse transform="matrix(.7071 -.7071 .7071 .7071 -1.4128 36.899)" cx="43.8" cy="20.2" rx="1.2" ry="1.2"/>
<ellipse transform="matrix(.7071 -.7071 .7071 .7071 -4.1747 35.755)" cx="41.1" cy="22.9" rx="1.2" ry="1.2"/>
<path d="m54.2 45.5c2.5-4 3.8-8.7 3.8-13.5 0-14.4-11.7-26-26-26s-26 11.7-26 26 11.7 26 26 26c5.7 0 11-1.8 15.5-5.2l8.1 4.2c0.1 0.1 0.3 0.1 0.5 0.1s0.4-0.1 0.6-0.2c0.3-0.2 0.4-0.7 0.3-1l-2.8-10.4zm-9.3 3.8c-0.5-0.3-1.1-0.1-1.3 0.4-0.3 0.5-0.1 1.1 0.4 1.3l1.5 0.8c-4 2.7-8.6 4.2-13.6 4.2-13.3 0-24-10.8-24-24s10.8-24 24.1-24 24 10.8 24 24c0 4.4-1.2 8.8-3.5 12.5 0 0.1 0 0.1-0.1 0.2-0.2 0.2-0.4 0.6-0.3 0.9l2.3 8.6-9.5-4.9z"/>
</svg>